<?xml version="1.0" encoding="UTF-8" ?>
<!DOCTYPE svg PUBLIC "-//W3C//DTD SVG 1.1//EN" "http://www.w3.org/Graphics/SVG/1.1/DTD/svg11.dtd">
<svg width="520pt" height="68pt" viewBox="0 0 520 68" version="1.1" xmlns="http://www.w3.org/2000/svg">
<path fill="#181000" d=" M 0.00 0.00 L 100.62 0.00 L 99.37 0.91 C 96.66 1.01 93.95 1.00 91.24 0.99 C 87.29 0.96 83.33 1.11 79.39 1.46 C 78.49 1.37 77.59 1.29 76.70 1.21 C 76.43 1.19 75.90 1.15 75.63 1.13 C 74.97 3.46 73.02 5.59 70.68 3.55 C 70.53 2.90 70.22 1.61 70.06 0.97 L 69.38 1.04 C 67.99 1.15 66.53 1.20 65.39 2.12 C 65.22 2.12 64.88 2.11 64.72 2.11 C 59.43 1.61 54.12 2.05 48.82 1.80 C 48.74 4.08 48.15 6.05 45.43 5.83 C 45.96 6.45 46.29 7.15 46.45 7.92 C 45.73 10.49 42.92 9.56 40.92 9.75 C 40.54 11.13 40.16 13.72 38.00 12.84 C 36.35 12.92 35.31 11.44 34.04 10.64 C 33.43 11.29 32.77 11.90 32.07 12.46 C 29.85 12.97 28.09 11.37 26.81 9.80 C 25.27 9.78 23.73 9.80 22.19 9.81 C 22.22 8.82 22.27 6.85 22.30 5.87 C 22.98 6.36 24.33 7.34 25.00 7.83 C 24.79 7.31 24.36 6.29 24.15 5.77 C 23.50 5.78 22.20 5.78 21.55 5.78 C 20.99 4.91 20.42 4.04 19.86 3.17 C 18.81 3.33 17.76 3.54 16.72 3.79 C 15.21 5.20 15.72 7.35 15.66 9.18 C 17.47 9.25 19.29 9.33 21.10 9.43 C 27.46 12.22 34.89 15.14 41.69 12.09 C 45.10 10.97 47.13 7.85 49.95 5.88 C 49.77 7.09 49.58 8.29 49.39 9.50 C 46.54 12.29 43.05 14.66 38.97 15.05 C 31.64 15.87 24.47 13.36 17.73 10.76 C 17.06 11.78 16.22 12.73 15.85 13.91 C 18.27 15.84 21.58 17.03 22.85 20.08 C 23.28 22.16 22.02 24.14 21.59 26.11 C 24.45 24.73 24.97 21.45 25.50 18.64 C 28.79 18.67 32.08 18.62 35.37 18.74 C 35.72 18.92 36.42 19.28 36.78 19.46 C 33.29 19.94 29.77 19.79 26.27 19.66 C 26.35 24.78 21.44 29.01 16.48 28.90 C 16.98 31.33 18.73 33.45 21.40 32.40 C 20.94 28.77 25.03 29.41 27.27 28.46 C 26.79 28.98 25.82 30.02 25.34 30.54 L 24.57 29.21 C 21.13 30.60 20.00 35.55 23.36 37.76 C 22.87 37.55 21.88 37.13 21.39 36.91 L 20.83 36.61 C 20.28 35.28 19.70 33.96 19.06 32.67 C 19.59 36.40 15.65 36.48 13.79 38.44 C 19.26 39.76 25.67 42.51 26.51 48.85 C 29.73 50.08 33.67 48.61 37.13 49.47 C 44.08 50.27 49.56 55.35 52.58 61.41 C 58.56 61.21 64.10 63.90 68.97 67.11 C 70.55 66.39 71.99 64.05 73.94 65.06 C 74.36 65.54 75.20 66.51 75.62 66.99 C 76.17 66.99 77.25 67.00 77.80 67.00 C 78.26 66.98 79.20 66.94 79.67 66.92 C 80.25 66.46 80.83 66.01 81.41 65.56 C 84.33 68.13 88.59 66.77 92.04 66.26 L 92.05 67.04 L 93.35 66.91 C 94.44 66.80 95.53 66.69 96.63 66.59 C 97.17 65.49 97.73 64.40 98.28 63.32 C 98.40 63.45 98.64 63.71 98.77 63.84 C 99.10 64.69 99.77 66.40 100.10 67.26 C 99.70 67.44 98.90 67.81 98.50 68.00 L 0.00 68.00 L 0.00 0.00 Z" />
<path fill="#0c0500" d=" M 100.62 0.00 L 422.09 0.00 L 422.16 0.54 C 418.48 1.18 414.74 0.96 411.03 1.00 C 308.05 0.98 205.08 1.04 102.10 0.97 C 101.42 0.95 100.05 0.92 99.37 0.91 L 100.62 0.00 Z" />
<path fill="#161000" d=" M 422.09 0.00 L 477.97 0.00 C 477.64 0.58 476.99 1.73 476.66 2.31 C 476.49 2.63 476.15 3.26 475.99 3.58 C 478.89 3.89 481.82 3.88 484.73 3.58 L 485.01 3.56 C 484.63 2.37 484.26 1.19 483.89 0.00 L 520.00 0.00 L 520.00 68.00 L 491.69 68.00 C 491.90 67.65 492.32 66.94 492.53 66.58 C 494.36 66.96 496.26 67.02 498.11 66.65 C 498.62 66.65 499.65 66.65 500.16 66.65 C 500.57 66.60 501.38 66.50 501.79 66.46 C 503.56 66.43 505.09 65.47 506.59 64.60 L 507.21 64.40 C 507.33 64.35 507.58 64.27 507.70 64.23 C 510.30 64.20 509.84 60.45 507.64 62.79 C 507.55 62.24 507.37 61.13 507.29 60.57 C 503.77 59.70 500.13 59.20 496.83 57.63 C 489.16 53.85 478.05 54.77 473.28 62.66 C 472.12 62.88 470.96 63.11 469.82 63.36 C 469.83 62.89 469.84 61.95 469.85 61.47 C 470.79 59.92 471.80 58.40 472.90 56.95 C 471.92 59.50 474.99 58.75 474.89 56.72 L 475.11 56.50 L 475.16 56.37 C 478.67 55.13 482.21 53.57 486.01 53.59 C 492.50 53.51 498.62 55.90 504.67 57.97 C 505.40 56.97 506.13 55.97 506.87 54.98 C 504.43 53.46 502.09 51.79 499.90 49.94 C 499.94 47.71 500.00 45.47 500.09 43.24 L 500.57 43.36 L 500.72 42.88 C 500.57 42.97 500.25 43.15 500.09 43.24 C 498.13 45.03 497.27 47.55 496.70 50.07 C 496.47 49.88 496.00 49.51 495.76 49.33 C 496.40 42.82 502.89 39.28 508.80 38.71 C 509.41 38.63 510.04 38.55 510.67 38.47 L 511.04 37.68 C 511.61 36.35 512.56 35.35 513.88 34.69 C 512.69 33.44 511.53 32.17 510.41 30.87 C 510.80 30.68 511.56 30.28 511.95 30.08 C 513.67 31.48 515.47 32.78 517.31 34.03 C 516.15 35.74 514.49 36.96 512.73 37.98 C 512.66 38.31 512.52 38.97 512.45 39.30 C 514.04 40.04 515.99 40.39 517.10 41.89 C 518.56 43.81 517.98 46.36 518.17 48.59 C 516.30 48.10 516.31 45.95 515.62 44.54 C 515.57 44.42 515.48 44.18 515.44 44.07 C 515.79 42.43 513.17 41.12 513.00 43.25 C 510.35 42.17 507.53 41.52 504.66 41.64 C 503.53 43.62 501.46 45.37 501.53 47.80 C 503.28 50.42 506.32 51.73 508.60 53.83 C 509.38 55.17 508.00 56.20 507.57 57.34 C 509.01 57.89 510.35 58.57 511.83 59.07 L 511.86 59.14 C 511.92 59.06 512.03 58.91 512.09 58.84 C 512.23 58.70 512.51 58.41 512.65 58.27 C 514.09 57.95 514.91 56.63 515.52 55.39 C 516.58 54.80 517.92 52.60 516.17 52.04 C 512.60 51.32 510.54 48.24 511.06 44.62 C 513.74 45.03 514.85 47.19 515.56 49.48 C 516.21 49.66 517.50 50.02 518.15 50.20 C 518.14 52.24 518.12 54.27 518.10 56.30 C 516.57 57.62 515.01 58.91 513.43 60.16 C 515.30 60.53 517.04 61.31 518.61 62.38 C 517.81 56.61 518.69 50.82 518.73 45.04 C 517.59 34.06 519.11 23.05 518.57 12.06 C 518.34 8.58 518.75 5.10 518.63 1.61 C 514.82 1.82 510.98 1.86 507.20 1.29 C 508.70 2.00 510.26 2.67 511.52 3.79 C 511.67 5.38 510.51 6.64 509.92 8.01 C 511.93 6.51 514.02 4.99 516.47 4.28 C 517.26 4.90 517.92 5.65 518.43 6.53 C 516.57 8.40 513.93 8.75 511.49 9.26 C 512.61 11.15 514.95 10.09 516.64 10.22 C 518.35 12.36 518.16 15.07 518.14 17.64 C 517.52 18.42 516.93 19.21 516.35 20.01 L 516.40 19.92 C 514.91 21.57 513.06 22.77 510.88 23.26 C 510.70 20.80 511.88 19.06 513.97 18.00 C 514.65 16.57 515.33 15.13 516.02 13.69 C 513.93 12.71 511.83 11.74 509.75 10.76 C 509.02 10.84 508.31 10.93 507.60 11.01 C 508.15 12.36 508.60 13.74 509.02 15.14 C 506.16 16.68 502.25 18.16 501.57 21.72 C 503.37 24.29 505.37 27.70 508.45 28.63 C 509.87 25.70 513.11 24.66 515.60 22.86 C 515.79 22.15 516.16 20.72 516.35 20.01 C 516.63 19.91 517.20 19.72 517.48 19.63 C 517.85 21.10 518.12 22.59 518.29 24.10 C 517.82 26.32 515.79 27.65 514.03 28.80 C 513.41 28.80 512.17 28.80 511.54 28.80 C 510.58 29.32 509.67 29.88 508.74 30.44 C 503.03 29.07 496.32 26.19 495.72 19.45 C 490.26 20.07 484.49 20.05 479.45 17.59 C 475.37 15.85 472.61 12.16 470.43 8.45 C 471.16 8.90 472.60 9.80 473.32 10.25 C 473.44 10.38 473.67 10.65 473.79 10.78 C 473.86 10.89 474.00 11.11 474.07 11.22 C 477.36 17.30 485.24 19.18 491.63 18.29 C 493.30 18.41 494.97 18.54 496.65 18.67 C 497.35 21.67 498.57 24.55 501.09 26.46 C 500.48 23.84 498.84 20.96 500.41 18.36 C 502.24 16.28 504.80 15.02 507.02 13.40 C 506.19 12.57 505.38 11.73 504.57 10.89 C 498.81 12.73 493.08 15.12 486.96 15.26 C 482.34 15.42 477.93 13.60 474.07 11.22 L 474.00 11.00 L 473.79 10.78 C 473.67 10.65 473.44 10.38 473.32 10.25 C 472.75 7.12 469.99 7.22 467.54 7.18 C 465.69 6.66 463.78 6.41 461.89 6.12 C 458.16 5.37 455.22 2.86 452.28 0.64 C 452.16 1.51 451.92 3.26 451.80 4.13 C 449.26 4.91 446.63 3.90 446.71 0.91 C 446.33 0.94 445.57 0.99 445.19 1.02 C 444.76 1.04 443.90 1.09 443.47 1.12 C 439.32 1.18 435.18 1.10 431.04 0.98 C 428.53 0.93 426.02 1.08 423.54 1.36 C 423.20 1.16 422.50 0.75 422.16 0.54 L 422.09 0.00 Z" />
<path fill="#181000" d=" M 477.97 0.00 L 483.89 0.00 C 484.26 1.19 484.63 2.37 485.01 3.56 L 484.73 3.58 C 483.12 0.46 479.31 2.39 476.66 2.31 C 476.99 1.73 477.64 0.58 477.97 0.00 Z" />
<path fill="#ba5428" d=" M 1.10 1.72 C 5.29 1.83 9.51 2.04 13.67 1.40 C 11.45 2.35 10.85 4.56 11.34 6.80 C 8.12 4.66 4.06 4.31 1.10 1.72 Z" />
<path fill="#ba5428" d=" M 48.82 1.80 C 54.12 2.05 59.43 1.61 64.72 2.11 C 61.60 2.07 58.61 2.95 56.02 4.68 C 54.28 4.93 52.54 5.15 50.81 5.40 C 50.60 5.52 50.17 5.76 49.95 5.88 C 47.13 7.85 45.10 10.97 41.69 12.09 C 34.89 15.14 27.46 12.22 21.10 9.43 C 19.29 9.33 17.47 9.25 15.66 9.18 C 15.72 7.35 15.21 5.20 16.72 3.79 C 17.76 3.54 18.81 3.33 19.86 3.17 C 20.42 4.04 20.99 4.91 21.55 5.78 C 22.20 5.78 23.50 5.78 24.15 5.77 C 24.36 6.29 24.79 7.31 25.00 7.83 C 24.33 7.34 22.98 6.36 22.30 5.87 C 22.27 6.85 22.22 8.82 22.19 9.81 C 23.73 9.80 25.27 9.78 26.81 9.80 C 28.09 11.37 29.85 12.97 32.07 12.46 C 32.77 11.90 33.43 11.29 34.04 10.64 C 35.31 11.44 36.35 12.92 38.00 12.84 C 40.16 13.72 40.54 11.13 40.92 9.75 C 42.92 9.56 45.73 10.49 46.45 7.92 C 46.29 7.15 45.96 6.45 45.43 5.83 C 48.15 6.05 48.74 4.08 48.82 1.80 Z" />
<path fill="#351a00" d=" M 65.39 2.12 C 66.53 1.20 67.99 1.15 69.38 1.04 C 65.74 4.91 60.51 6.28 55.51 7.39 C 55.54 7.96 55.62 9.10 55.65 9.67 L 55.04 8.99 C 54.53 8.47 53.52 7.44 53.02 6.92 C 49.72 13.18 44.20 18.86 36.78 19.46 C 36.42 19.28 35.72 18.92 35.37 18.74 C 40.58 17.11 47.74 15.48 49.39 9.50 C 49.58 8.29 49.77 7.09 49.95 5.88 C 50.17 5.76 50.60 5.52 50.81 5.40 C 52.54 5.15 54.28 4.93 56.02 4.68 C 58.61 2.95 61.60 2.07 64.72 2.11 C 64.88 2.11 65.22 2.12 65.39 2.12 Z" />
<path fill="#d8c397" d=" M 75.63 1.13 C 75.90 1.15 76.43 1.19 76.70 1.21 C 77.37 2.02 78.04 2.82 78.72 3.62 C 78.05 4.74 77.39 5.86 76.75 6.99 C 74.40 8.78 72.04 10.55 69.80 12.48 C 65.95 11.46 63.36 14.24 60.97 16.74 C 61.21 16.92 61.68 17.27 61.92 17.45 C 61.63 18.00 61.06 19.10 60.77 19.65 C 61.50 19.78 62.98 20.05 63.72 20.18 C 61.40 23.76 58.51 27.05 54.95 29.42 C 52.61 28.63 50.37 27.57 48.02 26.80 C 47.09 25.80 46.03 25.53 44.84 25.99 C 44.52 26.12 43.86 26.36 43.53 26.49 C 40.86 27.72 38.65 29.64 36.77 31.87 C 33.13 34.12 30.15 30.14 27.27 28.46 C 25.03 29.41 20.94 28.77 21.40 32.40 C 18.73 33.45 16.98 31.33 16.48 28.90 C 21.44 29.01 26.35 24.78 26.27 19.66 C 29.77 19.79 33.29 19.94 36.78 19.46 C 44.20 18.86 49.72 13.18 53.02 6.92 C 53.52 7.44 54.53 8.47 55.04 8.99 C 55.44 10.11 55.80 11.25 56.07 12.41 C 54.24 13.83 52.91 15.73 51.82 17.75 C 53.06 19.15 53.44 22.59 55.90 21.87 C 57.93 21.11 59.19 19.19 60.72 17.76 C 59.96 15.92 59.05 14.13 57.80 12.57 C 57.08 11.60 56.37 10.64 55.65 9.67 C 55.62 9.10 55.54 7.96 55.51 7.39 C 60.51 6.28 65.74 4.91 69.38 1.04 L 70.06 0.97 C 70.22 1.61 70.53 2.90 70.68 3.55 C 73.02 5.59 74.97 3.46 75.63 1.13 Z" />
<path fill="#bfa717" d=" M 76.70 1.21 C 77.59 1.29 78.49 1.37 79.39 1.46 C 80.98 3.40 82.58 5.60 85.11 6.35 C 87.56 7.52 90.04 6.04 92.28 5.12 C 91.94 3.74 91.60 2.37 91.24 0.99 C 93.95 1.00 96.66 1.01 99.37 0.91 C 100.05 0.92 101.42 0.95 102.10 0.97 C 101.73 1.28 101.00 1.91 100.64 2.22 L 100.39 2.42 C 97.91 2.04 95.41 1.89 92.90 1.84 C 92.98 3.28 93.06 4.71 93.15 6.14 C 90.86 7.42 88.33 8.04 85.73 8.27 L 85.75 9.01 C 83.87 7.31 81.78 5.88 79.68 4.48 C 79.44 4.26 78.96 3.84 78.72 3.62 C 78.04 2.82 77.37 2.02 76.70 1.21 Z" />
<path fill="#000000" d=" M 79.39 1.46 C 83.33 1.11 87.29 0.96 91.24 0.99 C 91.60 2.37 91.94 3.74 92.28 5.12 C 90.04 6.04 87.56 7.52 85.11 6.35 C 82.58 5.60 80.98 3.40 79.39 1.46 Z" />
<path fill="#d8c397" d=" M 102.10 0.97 C 205.08 1.04 308.05 0.98 411.03 1.00 C 414.74 0.96 418.48 1.18 422.16 0.54 C 422.50 0.75 423.20 1.16 423.54 1.36 L 423.75 1.76 L 423.16 1.88 C 422.16 1.84 421.17 1.88 420.19 2.00 C 313.68 2.36 207.15 1.92 100.64 2.22 C 101.00 1.91 101.73 1.28 102.10 0.97 Z" />
<path fill="#b39d18" d=" M 423.54 1.36 C 426.02 1.08 428.53 0.93 431.04 0.98 C 430.50 2.83 429.53 5.64 432.19 6.37 C 436.80 8.44 440.73 4.31 443.47 1.12 C 443.90 1.09 444.76 1.04 445.19 1.02 C 444.86 1.56 444.20 2.63 443.87 3.17 C 443.74 3.38 443.48 3.79 443.35 4.00 C 441.60 5.58 439.52 6.70 437.60 8.03 C 435.76 8.01 433.93 8.01 432.10 8.06 C 430.01 6.78 428.86 4.83 429.12 2.35 C 427.32 2.16 425.53 1.97 423.75 1.76 L 423.54 1.36 Z" />
<path fill="#000001" d=" M 431.04 0.98 C 435.18 1.10 439.32 1.18 443.47 1.12 C 440.73 4.31 436.80 8.44 432.19 6.37 C 429.53 5.64 430.50 2.83 431.04 0.98 Z" />
<path fill="#d8c397" d=" M 445.19 1.02 C 445.57 0.99 446.33 0.94 446.71 0.91 C 446.63 3.90 449.26 4.91 451.80 4.13 C 451.92 3.26 452.16 1.51 452.28 0.64 C 455.22 2.86 458.16 5.37 461.89 6.12 C 463.64 6.76 465.84 6.95 466.81 8.77 L 466.15 9.85 C 465.89 10.29 465.38 11.15 465.13 11.59 C 463.92 13.48 462.68 15.38 461.93 17.51 C 461.39 16.90 460.84 16.29 460.31 15.68 C 460.10 16.08 459.69 16.87 459.49 17.27 C 459.49 16.73 459.50 15.64 459.51 15.09 C 457.90 12.66 455.09 12.02 452.45 11.41 C 449.17 9.11 446.00 6.62 443.87 3.17 C 444.20 2.63 444.86 1.56 445.19 1.02 Z" />
<path fill="#937b17" d=" M 448.98 1.42 C 450.36 1.01 450.86 1.49 450.47 2.88 C 449.05 3.32 448.56 2.84 448.98 1.42 Z" />
<path fill="#ba5428" d=" M 458.13 1.69 C 463.65 1.82 469.20 2.03 474.71 1.56 C 474.68 1.88 474.60 2.50 474.57 2.81 L 473.72 2.70 C 471.35 2.26 468.55 1.93 467.18 4.41 C 464.05 3.93 461.30 2.13 458.13 1.69 Z" />
<path fill="#cba359" d=" M 486.29 3.39 C 485.81 1.33 488.63 1.71 489.87 1.98 C 489.65 2.50 489.20 3.54 488.98 4.06 C 488.31 3.89 486.96 3.56 486.29 3.39 Z" />
<path fill="#ba5428" d=" M 507.20 1.29 C 510.98 1.86 514.82 1.82 518.63 1.61 C 518.75 5.10 518.34 8.58 518.57 12.06 C 519.11 23.05 517.59 34.06 518.73 45.04 C 518.69 50.82 517.81 56.61 518.61 62.38 C 517.04 61.31 515.30 60.53 513.43 60.16 C 515.01 58.91 516.57 57.62 518.10 56.30 C 518.12 54.27 518.14 52.24 518.15 50.20 C 517.50 50.02 516.21 49.66 515.56 49.48 C 514.85 47.19 513.74 45.03 511.06 44.62 C 510.54 48.24 512.60 51.32 516.17 52.04 C 516.01 52.88 515.68 54.55 515.52 55.39 C 515.02 55.46 514.02 55.61 513.52 55.68 C 513.30 56.33 512.87 57.63 512.65 58.27 C 512.51 58.41 512.23 58.70 512.09 58.84 L 511.83 59.07 C 510.35 58.57 509.01 57.89 507.57 57.34 C 508.00 56.20 509.38 55.17 508.60 53.83 C 506.32 51.73 503.28 50.42 501.53 47.80 C 501.46 45.37 503.53 43.62 504.66 41.64 C 507.53 41.52 510.35 42.17 513.00 43.25 C 513.61 43.45 514.83 43.86 515.44 44.07 C 515.48 44.18 515.57 44.42 515.62 44.54 C 516.31 45.95 516.30 48.10 518.17 48.59 C 517.98 46.36 518.56 43.81 517.10 41.89 C 515.99 40.39 514.04 40.04 512.45 39.30 C 512.52 38.97 512.66 38.31 512.73 37.98 C 514.49 36.96 516.15 35.74 517.31 34.03 C 515.47 32.78 513.67 31.48 511.95 30.08 C 512.47 29.76 513.51 29.12 514.03 28.80 C 515.79 27.65 517.82 26.32 518.29 24.10 C 518.12 22.59 517.85 21.10 517.48 19.63 C 517.20 19.72 516.63 19.91 516.35 20.01 C 516.93 19.21 517.52 18.42 518.14 17.64 C 518.16 15.07 518.35 12.36 516.64 10.22 C 514.95 10.09 512.61 11.15 511.49 9.26 C 513.93 8.75 516.57 8.40 518.43 6.53 C 517.92 5.65 517.26 4.90 516.47 4.28 C 514.02 4.99 511.93 6.51 509.92 8.01 C 510.51 6.64 511.67 5.38 511.52 3.79 C 510.26 2.67 508.70 2.00 507.20 1.29 Z" />
<path fill="#cba359" d=" M 22.30 4.20 C 22.31 1.08 26.04 2.20 28.08 1.81 C 29.87 1.37 31.10 2.42 31.15 4.22 C 28.20 4.26 25.25 4.27 22.30 4.20 Z" />
<path fill="#bc8e23" d=" M 32.97 2.23 C 33.87 1.25 37.26 1.89 35.96 3.54 C 35.05 4.52 31.78 3.89 32.97 2.23 Z" />
<path fill="#f3da7a" d=" M 38.06 3.69 C 38.28 0.32 42.42 2.41 44.46 2.23 C 44.44 2.70 44.42 3.63 44.41 4.10 C 42.28 4.10 40.17 3.94 38.06 3.69 Z" />
<path fill="#b4a019" d=" M 44.46 2.23 C 46.88 0.48 46.80 5.70 44.41 4.10 C 44.42 3.63 44.44 2.70 44.46 2.23 Z" />
<path fill="#351a00" d=" M 92.90 1.84 C 95.41 1.89 97.91 2.04 100.39 2.42 C 99.17 3.48 98.64 5.00 98.15 6.47 C 95.79 8.20 92.94 8.89 90.12 9.44 C 89.81 9.93 89.19 10.90 88.88 11.38 C 87.80 10.64 86.73 9.88 85.75 9.01 L 85.73 8.27 C 88.33 8.04 90.86 7.42 93.15 6.14 C 93.06 4.71 92.98 3.28 92.90 1.84 Z" />
<path fill="#b39d18" d=" M 420.19 2.00 C 421.17 1.88 422.16 1.84 423.16 1.88 C 423.59 2.89 423.88 3.94 424.01 5.04 C 422.49 4.36 421.28 3.22 420.19 2.00 Z" />
<path fill="#311f00" d=" M 423.16 1.88 L 423.75 1.76 C 425.53 1.97 427.32 2.16 429.12 2.35 C 428.86 4.83 430.01 6.78 432.10 8.06 C 433.93 8.01 435.76 8.01 437.60 8.03 C 436.26 8.98 435.23 11.87 433.24 10.47 C 430.47 8.84 427.08 8.72 424.44 6.84 C 424.33 6.39 424.12 5.49 424.01 5.04 C 423.88 3.94 423.59 2.89 423.16 1.88 Z" />
<path fill="#ffe790" d=" M 475.99 3.58 C 476.15 3.26 476.49 2.63 476.66 2.31 C 479.31 2.39 483.12 0.46 484.73 3.58 C 481.82 3.88 478.89 3.89 475.99 3.58 Z" />
<path fill="#cba359" d=" M 491.73 2.73 C 492.39 1.14 495.01 1.60 496.40 1.98 C 495.80 2.52 495.22 3.07 494.66 3.63 L 494.08 3.80 C 493.49 3.53 492.32 3.00 491.73 2.73 Z" />
<path fill="#ffe790" d=" M 496.40 1.98 C 497.34 2.13 499.24 2.44 500.18 2.60 C 498.88 4.32 496.50 3.83 494.66 3.63 C 495.22 3.07 495.80 2.52 496.40 1.98 Z" />
<path fill="#ba5428" d=" M 501.43 2.02 C 504.57 2.40 508.46 4.34 507.42 8.16 C 506.86 8.42 505.72 8.94 505.16 9.19 C 503.67 9.24 502.19 9.29 500.72 9.35 C 499.08 10.79 497.01 11.44 494.85 11.55 C 491.64 13.72 487.39 13.32 483.72 13.06 C 480.88 11.35 476.65 11.23 474.79 8.34 C 474.92 6.38 473.47 4.47 471.40 5.50 C 472.23 4.62 473.01 3.69 473.72 2.70 C 473.84 3.53 474.09 5.20 474.22 6.03 C 475.10 5.83 476.86 5.42 477.74 5.22 C 476.41 6.28 475.62 7.53 477.04 8.96 C 478.30 9.90 479.82 9.81 481.30 9.64 C 480.48 12.76 484.47 12.53 486.43 13.03 C 487.04 12.06 487.69 11.09 488.32 10.12 C 488.29 10.85 488.24 12.29 488.21 13.02 C 490.60 12.61 494.56 12.99 494.80 9.63 C 496.50 9.71 498.19 9.79 499.90 9.86 C 499.77 8.41 499.65 6.95 499.52 5.49 C 500.13 5.57 501.35 5.73 501.96 5.81 C 501.83 4.86 501.56 2.97 501.43 2.02 Z" />
<path fill="#fcfaf8" d=" M 98.15 6.47 C 98.64 5.00 99.17 3.48 100.39 2.42 L 100.64 2.22 C 207.15 1.92 313.68 2.36 420.19 2.00 C 421.28 3.22 422.49 4.36 424.01 5.04 C 424.12 5.49 424.33 6.39 424.44 6.84 C 427.08 8.72 430.47 8.84 433.24 10.47 C 435.23 11.87 436.26 8.98 437.60 8.03 C 439.52 6.70 441.60 5.58 443.35 4.00 C 444.16 5.15 444.87 6.37 445.52 7.62 C 447.84 9.15 450.14 10.74 452.19 12.63 L 451.89 13.95 C 450.65 14.09 449.41 14.20 448.17 14.30 C 447.44 14.92 446.72 15.54 446.00 16.17 C 446.04 17.49 446.09 18.82 446.13 20.14 C 450.04 21.10 455.09 25.84 458.39 21.49 C 458.48 21.39 458.65 21.18 458.73 21.08 C 458.95 21.30 459.38 21.74 459.59 21.96 C 461.70 24.95 464.18 27.66 467.06 29.93 C 466.03 31.23 463.80 32.00 463.94 33.93 C 464.84 35.14 466.04 36.06 467.16 37.07 C 464.00 39.25 461.49 42.17 459.24 45.24 C 457.35 43.68 455.14 42.55 452.67 42.29 C 451.15 41.79 450.76 43.76 450.47 44.73 C 449.11 45.23 447.75 45.73 446.41 46.24 C 446.46 48.36 445.94 50.92 448.25 52.09 L 448.50 52.33 L 448.91 52.43 C 450.23 52.74 451.53 53.21 452.73 53.88 C 450.28 56.76 445.79 57.84 444.58 61.67 C 443.50 62.45 442.41 63.21 441.35 64.00 C 440.03 63.11 438.69 62.25 437.48 61.22 C 437.16 60.90 436.51 60.26 436.19 59.94 C 435.45 59.27 434.53 57.87 433.33 58.64 C 430.32 59.79 427.38 61.13 424.34 62.19 C 423.86 63.43 423.39 64.67 422.93 65.91 C 317.94 65.79 212.95 65.85 107.96 65.88 C 104.86 65.57 100.81 67.02 98.77 63.84 C 98.64 63.71 98.40 63.45 98.28 63.32 C 97.14 62.16 95.68 61.47 94.30 60.68 C 93.68 60.56 92.45 60.34 91.84 60.23 L 90.77 60.09 C 90.34 59.71 89.48 58.95 89.05 58.56 L 87.85 58.71 C 85.56 60.22 83.91 62.55 81.41 63.75 C 79.59 63.05 78.07 61.87 77.61 59.90 C 75.00 58.15 72.55 56.19 70.36 53.93 C 71.92 53.27 73.56 52.83 75.11 52.13 C 76.43 50.69 75.81 48.52 75.35 46.84 C 72.91 45.81 70.42 44.92 67.96 43.93 C 66.46 42.92 64.98 44.42 63.83 45.23 C 61.24 42.25 58.57 39.29 55.40 36.90 C 56.65 35.70 57.91 34.48 59.16 33.27 C 58.07 32.32 56.96 31.38 55.85 30.46 C 59.02 27.69 62.04 24.77 64.62 21.44 C 64.92 21.87 65.51 22.72 65.81 23.14 C 67.16 23.07 68.51 22.98 69.86 22.88 C 71.81 21.57 74.07 20.87 76.28 20.15 C 76.20 17.88 76.14 15.47 74.15 14.00 C 73.40 14.12 71.89 14.37 71.14 14.50 L 70.59 13.79 C 72.67 11.55 75.05 9.62 77.52 7.82 C 78.21 6.69 78.93 5.57 79.68 4.48 C 81.78 5.88 83.87 7.31 85.75 9.01 C 86.73 9.88 87.80 10.64 88.88 11.38 C 89.19 10.90 89.81 9.93 90.12 9.44 C 92.94 8.89 95.79 8.20 98.15 6.47 Z" />
<path fill="#191000" d=" M 443.35 4.00 C 443.48 3.79 443.74 3.38 443.87 3.17 C 446.00 6.62 449.17 9.11 452.45 11.41 C 452.38 11.71 452.26 12.32 452.19 12.63 C 450.14 10.74 447.84 9.15 445.52 7.62 C 444.87 6.37 444.16 5.15 443.35 4.00 Z" />
<path fill="#181000" d=" M 490.94 3.91 C 491.14 3.61 491.53 3.02 491.73 2.73 C 492.32 3.00 493.49 3.53 494.08 3.80 L 494.22 4.58 L 493.46 4.93 C 492.83 4.68 491.57 4.16 490.94 3.91 Z" />
<path fill="#190e00" d=" M 78.72 3.62 C 78.96 3.84 79.44 4.26 79.68 4.48 C 78.93 5.57 78.21 6.69 77.52 7.82 C 75.05 9.62 72.67 11.55 70.59 13.79 C 70.39 13.47 70.00 12.81 69.80 12.48 C 72.04 10.55 74.40 8.78 76.75 6.99 C 77.39 5.86 78.05 4.74 78.72 3.62 Z" />
<path fill="#181000" d=" M 490.18 5.20 C 490.37 4.87 490.75 4.23 490.94 3.91 C 491.13 5.10 491.86 5.75 493.12 5.85 L 493.34 6.76 C 493.05 7.06 492.46 7.65 492.17 7.95 C 491.88 7.62 491.29 6.95 490.99 6.62 C 490.82 6.43 490.47 6.05 490.29 5.86 L 490.18 5.20 Z" />
<path fill="#cba359" d=" M 490.94 3.91 C 491.57 4.16 492.83 4.68 493.46 4.93 L 493.12 5.85 C 491.86 5.75 491.13 5.10 490.94 3.91 Z" />
<path fill="#ba5428" d=" M 1.56 5.19 C 3.70 7.78 6.75 8.94 9.99 9.42 C 8.61 9.99 7.16 10.34 5.67 10.47 C 2.87 12.27 2.05 16.66 4.43 19.06 C 3.06 20.83 3.03 23.05 3.14 25.18 C 4.42 26.24 5.62 27.39 6.77 28.59 C 8.58 28.73 10.38 28.89 12.18 29.10 C 10.44 30.11 8.71 31.17 7.07 32.35 C 7.12 33.74 7.16 35.12 7.17 36.51 C 8.51 37.85 9.97 39.21 11.99 39.29 L 11.84 39.96 C 11.08 39.77 9.57 39.41 8.81 39.23 C 7.54 41.38 4.67 41.61 3.40 43.74 C 2.88 45.82 2.85 48.32 4.44 49.97 C 2.72 51.62 3.29 54.13 3.19 56.25 C 4.04 57.05 4.90 57.86 5.76 58.66 C 6.58 58.67 8.21 58.68 9.03 58.69 C 6.68 60.65 3.61 61.47 1.34 63.56 C 2.04 58.74 1.59 53.87 1.72 49.03 C 1.61 34.41 1.90 19.79 1.56 5.19 Z" />
<path fill="#f7e092" d=" M 25.79 7.25 C 26.15 5.77 27.21 4.93 28.96 4.75 L 29.14 5.05 L 28.85 5.56 L 28.71 6.30 C 27.98 6.54 26.52 7.01 25.79 7.25 Z" />
<path fill="#cba359" d=" M 29.14 5.05 C 29.65 5.11 30.66 5.23 31.17 5.29 C 30.56 5.54 29.32 6.05 28.71 6.30 L 28.85 5.56 L 29.14 5.05 Z" />
<path fill="#e0c877" d=" M 37.13 4.41 C 39.37 4.36 41.49 5.02 43.34 6.25 C 42.81 6.54 41.74 7.14 41.21 7.43 C 39.74 6.63 36.54 7.14 37.13 4.41 Z" />
<path fill="#e5c26e" d=" M 479.40 6.21 C 480.81 4.08 483.41 4.72 485.56 4.55 L 485.62 6.25 C 483.98 6.60 482.37 7.04 480.72 7.24 C 480.39 6.98 479.73 6.47 479.40 6.21 Z" />
<path fill="#cba359" d=" M 489.68 5.98 C 489.80 5.78 490.06 5.39 490.18 5.20 L 490.29 5.86 L 489.68 5.98 Z" />
<path fill="#f6d477" d=" M 493.46 4.93 L 494.22 4.58 L 495.18 5.03 C 494.91 5.57 494.36 6.65 494.09 7.18 L 493.34 6.76 L 493.12 5.85 L 493.46 4.93 Z" />
<path fill="#a79726" d=" M 495.18 5.03 L 495.19 4.38 C 496.40 5.53 498.29 6.58 497.43 8.57 C 496.31 8.11 495.19 7.65 494.09 7.18 C 494.36 6.65 494.91 5.57 495.18 5.03 Z" />
<path fill="#ffe790" d=" M 30.70 6.09 C 31.74 6.27 32.77 6.44 33.81 6.62 C 33.87 8.89 32.08 9.86 30.11 10.12 C 30.29 8.78 30.49 7.43 30.70 6.09 Z" />
<path fill="#ffe790" d=" M 38.19 10.84 C 36.41 9.78 32.00 6.44 36.13 5.18 C 36.42 6.49 37.19 7.40 38.47 7.89 C 38.40 8.63 38.26 10.10 38.19 10.84 Z" />
<path fill="#a8820d" d=" M 43.34 6.25 C 45.92 7.14 41.49 9.76 41.21 7.43 C 41.74 7.14 42.81 6.54 43.34 6.25 Z" />
<path fill="#a86019" d=" M 461.89 6.12 C 463.78 6.41 465.69 6.66 467.54 7.18 C 469.99 7.22 472.75 7.12 473.32 10.25 C 472.60 9.80 471.16 8.90 470.43 8.45 C 470.04 8.19 469.25 7.68 468.86 7.43 C 468.24 9.03 467.66 10.62 467.05 12.22 L 466.84 12.84 C 466.42 12.53 465.56 11.90 465.13 11.59 C 465.38 11.15 465.89 10.29 466.15 9.85 L 466.48 11.01 C 467.45 10.41 467.56 9.66 466.81 8.77 C 465.84 6.95 463.64 6.76 461.89 6.12 Z" />
<path fill="#c1a518" d=" M 478.76 6.41 L 479.40 6.21 C 479.73 6.47 480.39 6.98 480.72 7.24 L 480.54 7.93 C 479.05 8.42 478.46 7.91 478.76 6.41 Z" />
<path fill="#ffe790" d=" M 483.90 7.93 C 485.18 7.20 486.56 6.58 487.04 5.02 C 491.18 6.87 482.76 12.79 483.90 7.93 Z" />
<path fill="#dec97a" d=" M 489.68 5.98 L 490.29 5.86 C 490.47 6.05 490.82 6.43 490.99 6.62 C 491.29 6.95 491.88 7.62 492.17 7.95 L 491.91 8.72 C 491.46 8.80 490.56 8.96 490.11 9.05 C 488.56 8.32 488.42 7.30 489.68 5.98 Z" />
<path fill="#cba359" d=" M 490.29 5.86 C 490.47 6.05 490.82 6.43 490.99 6.62 C 490.82 6.43 490.47 6.05 490.29 5.86 Z" />
<path fill="#c10000" d=" M 55.04 8.99 L 55.65 9.67 C 56.37 10.64 57.08 11.60 57.80 12.57 L 56.96 13.15 C 57.92 14.44 58.87 15.73 59.82 17.02 C 58.29 18.25 56.93 21.76 54.54 20.45 C 51.71 18.00 54.99 14.87 56.07 12.41 C 55.80 11.25 55.44 10.11 55.04 8.99 Z" />
<path fill="#4f5503" d=" M 466.81 8.77 C 467.56 9.66 467.45 10.41 466.48 11.01 L 466.15 9.85 L 466.81 8.77 Z" />
<path fill="#d8c397" d=" M 467.05 12.22 C 467.66 10.62 468.24 9.03 468.86 7.43 C 469.25 7.68 470.04 8.19 470.43 8.45 C 472.61 12.16 475.37 15.85 479.45 17.59 C 484.49 20.05 490.26 20.07 495.72 19.45 C 496.32 26.19 503.03 29.07 508.74 30.44 C 507.69 31.12 506.64 31.79 505.59 32.45 L 504.86 32.33 C 503.08 32.01 501.75 30.78 500.42 29.66 C 498.71 28.89 496.77 28.89 494.98 28.47 C 492.26 30.06 489.63 33.87 486.13 32.09 C 483.93 29.77 481.44 27.78 478.87 25.89 C 475.23 26.87 471.54 27.62 468.04 29.06 C 465.00 26.99 462.57 24.17 460.30 21.32 L 460.64 20.23 L 460.70 19.55 C 461.11 19.19 461.92 18.48 462.32 18.12 C 463.53 20.27 465.40 21.92 467.90 22.25 C 468.62 21.18 469.35 20.11 470.09 19.04 C 470.48 16.33 469.04 14.23 466.84 12.84 L 467.05 12.22 Z" />
<path fill="#a77f1d" d=" M 490.11 9.05 C 490.56 8.96 491.46 8.80 491.91 8.72 C 493.95 11.03 488.47 11.57 490.11 9.05 Z" />
<path fill="#ba5428" d=" M 8.34 11.36 C 9.56 11.45 11.09 12.03 11.98 10.80 C 12.76 11.31 13.63 11.63 14.58 11.75 C 14.07 12.45 13.57 13.16 13.08 13.88 C 13.43 14.52 14.14 15.81 14.50 16.46 C 17.34 17.60 21.42 19.23 20.35 23.10 C 19.04 25.46 16.81 27.46 13.96 27.48 C 12.60 26.55 11.31 25.54 10.19 24.33 C 9.58 24.28 8.35 24.18 7.73 24.13 C 7.01 23.56 6.28 23.00 5.55 22.44 C 5.81 21.89 6.34 20.78 6.60 20.23 C 7.95 22.18 9.70 23.54 12.27 22.92 C 11.46 19.41 7.81 17.57 6.52 14.18 C 7.13 13.24 7.73 12.30 8.34 11.36 Z" />
<path fill="#985c13" d=" M 38.97 15.05 C 43.05 14.66 46.54 12.29 49.39 9.50 C 47.74 15.48 40.58 17.11 35.37 18.74 C 32.08 18.62 28.79 18.67 25.50 18.64 C 24.97 21.45 24.45 24.73 21.59 26.11 C 22.02 24.14 23.28 22.16 22.85 20.08 C 21.58 17.03 18.27 15.84 15.85 13.91 C 16.22 12.73 17.06 11.78 17.73 10.76 C 24.47 13.36 31.64 15.87 38.97 15.05 Z" />
<path fill="#cba359" d=" M 473.32 10.25 C 473.44 10.38 473.67 10.65 473.79 10.78 C 473.67 10.65 473.44 10.38 473.32 10.25 Z" />
<path fill="#ba5428" d=" M 507.60 11.01 C 508.31 10.93 509.02 10.84 509.75 10.76 C 511.83 11.74 513.93 12.71 516.02 13.69 C 515.33 15.13 514.65 16.57 513.97 18.00 C 511.88 19.06 510.70 20.80 510.88 23.26 C 513.06 22.77 514.91 21.57 516.40 19.92 L 516.35 20.01 C 516.16 20.72 515.79 22.15 515.60 22.86 C 513.11 24.66 509.87 25.70 508.45 28.63 C 505.37 27.70 503.37 24.29 501.57 21.72 C 502.25 18.16 506.16 16.68 509.02 15.14 C 508.60 13.74 508.15 12.36 507.60 11.01 Z" />
<path fill="#78643f" d=" M 452.45 11.41 C 455.09 12.02 457.90 12.66 459.51 15.09 C 459.50 15.64 459.49 16.73 459.49 17.27 L 459.30 17.85 C 459.19 18.44 458.99 19.64 458.88 20.23 L 458.73 21.08 C 458.65 21.18 458.48 21.39 458.39 21.49 C 455.09 25.84 450.04 21.10 446.13 20.14 C 446.09 18.82 446.04 17.49 446.00 16.17 C 446.72 15.54 447.44 14.92 448.17 14.30 C 449.41 14.20 450.65 14.09 451.89 13.95 L 452.19 12.63 C 452.26 12.32 452.38 11.71 452.45 11.41 Z" />
<path fill="#b36c32" d=" M 473.79 10.78 L 474.00 11.00 L 474.07 11.22 C 474.00 11.11 473.86 10.89 473.79 10.78 Z" />
<path fill="#9e5a14" d=" M 486.96 15.26 C 493.08 15.12 498.81 12.73 504.57 10.89 C 505.38 11.73 506.19 12.57 507.02 13.40 C 504.80 15.02 502.24 16.28 500.41 18.36 C 498.84 20.96 500.48 23.84 501.09 26.46 C 498.57 24.55 497.35 21.67 496.65 18.67 C 494.97 18.54 493.30 18.41 491.63 18.29 C 485.24 19.18 477.36 17.30 474.07 11.22 C 477.93 13.60 482.34 15.42 486.96 15.26 Z" />
<path fill="#78643f" d=" M 60.97 16.74 C 63.36 14.24 65.95 11.46 69.80 12.48 C 70.00 12.81 70.39 13.47 70.59 13.79 L 71.14 14.50 C 71.89 14.37 73.40 14.12 74.15 14.00 C 76.14 15.47 76.20 17.88 76.28 20.15 C 74.07 20.87 71.81 21.57 69.86 22.88 C 68.51 22.98 67.16 23.07 65.81 23.14 C 65.51 22.72 64.92 21.87 64.62 21.44 C 64.39 21.13 63.94 20.50 63.72 20.18 C 62.98 20.05 61.50 19.78 60.77 19.65 C 61.06 19.10 61.63 18.00 61.92 17.45 C 61.68 17.27 61.21 16.92 60.97 16.74 Z" />
<path fill="#351a00" d=" M 465.13 11.59 C 465.56 11.90 466.42 12.53 466.84 12.84 C 469.04 14.23 470.48 16.33 470.09 19.04 C 469.35 20.11 468.62 21.18 467.90 22.25 C 465.40 21.92 463.53 20.27 462.32 18.12 C 461.92 18.48 461.11 19.19 460.70 19.55 L 461.29 18.53 C 460.79 18.36 459.79 18.02 459.30 17.85 L 459.49 17.27 C 459.69 16.87 460.10 16.08 460.31 15.68 C 460.84 16.29 461.39 16.90 461.93 17.51 C 462.68 15.38 463.92 13.48 465.13 11.59 Z" />
<path fill="#190e00" d=" M 51.82 17.75 C 52.91 15.73 54.24 13.83 56.07 12.41 C 54.99 14.87 51.71 18.00 54.54 20.45 C 56.93 21.76 58.29 18.25 59.82 17.02 C 58.87 15.73 57.92 14.44 56.96 13.15 L 57.80 12.57 C 59.05 14.13 59.96 15.92 60.72 17.76 C 59.19 19.19 57.93 21.11 55.90 21.87 C 53.44 22.59 53.06 19.15 51.82 17.75 Z" />
<path fill="#fcfaf8" d=" M 452.18 13.99 C 452.74 14.21 453.87 14.64 454.44 14.86 C 454.57 14.95 454.82 15.13 454.95 15.22 C 454.95 15.78 454.94 16.91 454.94 17.47 L 454.14 17.52 L 453.81 17.54 C 453.82 17.62 453.85 17.78 453.86 17.86 C 453.54 18.34 452.92 19.29 452.60 19.76 C 452.04 19.26 450.92 18.26 450.36 17.77 C 451.34 16.67 452.58 15.95 454.06 15.62 C 453.59 15.22 452.65 14.40 452.18 13.99 Z" />
<path fill="#191000" d=" M 454.44 14.86 L 454.95 14.69 L 454.95 15.22 C 454.82 15.13 454.57 14.95 454.44 14.86 Z" />
<path fill="#181000" d=" M 454.95 14.69 C 457.04 14.01 456.81 17.76 455.72 18.75 C 455.52 18.43 455.14 17.79 454.94 17.47 C 454.94 16.91 454.95 15.78 454.95 15.22 L 454.95 14.69 Z" />
<path fill="#c10000" d=" M 462.85 16.46 C 463.88 15.37 464.63 13.88 466.12 13.33 C 467.15 14.17 468.02 15.17 468.92 16.16 C 468.99 16.89 469.14 18.37 469.21 19.10 C 468.05 19.73 467.00 21.08 465.54 20.60 C 464.39 19.40 463.66 17.88 462.85 16.46 Z" />
<path fill="#311f00" d=" M 66.11 15.36 C 67.73 13.20 70.96 15.69 73.14 16.05 C 73.11 16.93 73.04 18.70 73.01 19.59 L 72.39 18.49 C 71.68 16.58 70.02 15.34 67.93 15.05 C 68.60 16.07 69.28 17.09 69.97 18.09 C 69.00 18.36 68.04 18.63 67.07 18.90 L 67.93 16.64 C 67.52 16.50 66.68 16.20 66.26 16.05 L 66.11 15.36 Z" />
<path fill="#fefefa" d=" M 66.26 16.05 C 66.68 16.20 67.52 16.50 67.93 16.64 L 67.07 18.90 C 68.04 18.63 69.00 18.36 69.97 18.09 C 69.28 17.09 68.60 16.07 67.93 15.05 C 70.02 15.34 71.68 16.58 72.39 18.49 C 70.00 19.79 67.24 20.48 64.89 18.67 C 64.95 18.31 65.05 17.59 65.10 17.24 L 65.61 16.53 L 66.26 16.05 Z" />
<path fill="#311f00" d=" M 64.45 16.99 L 65.10 17.24 C 65.05 17.59 64.95 18.31 64.89 18.67 L 64.04 18.66 L 63.73 17.77 L 64.45 16.99 Z" />
<path fill="#78643f" d=" M 453.81 17.54 L 454.14 17.52 L 453.86 17.86 C 453.85 17.78 453.82 17.62 453.81 17.54 Z" />
<path fill="#161000" d=" M 454.14 17.52 L 454.94 17.47 C 455.14 17.79 455.52 18.43 455.72 18.75 L 455.67 19.24 C 454.78 20.25 453.76 20.63 452.62 20.36 L 452.60 19.76 C 452.92 19.29 453.54 18.34 453.86 17.86 L 454.14 17.52 Z" />
<path fill="#d8c397" d=" M 459.30 17.85 C 459.79 18.02 460.79 18.36 461.29 18.53 L 460.70 19.55 C 460.25 19.72 459.34 20.06 458.88 20.23 C 458.99 19.64 459.19 18.44 459.30 17.85 Z" />
<path fill="#181000" d=" M 458.88 20.23 C 459.34 20.06 460.25 19.72 460.70 19.55 L 460.64 20.23 L 460.30 21.32 L 459.59 21.96 C 459.38 21.74 458.95 21.30 458.73 21.08 L 458.88 20.23 Z" />
<path fill="#190e00" d=" M 63.72 20.18 C 63.94 20.50 64.39 21.13 64.62 21.44 C 62.04 24.77 59.02 27.69 55.85 30.46 C 56.96 31.38 58.07 32.32 59.16 33.27 C 57.91 34.48 56.65 35.70 55.40 36.90 C 58.57 39.29 61.24 42.25 63.83 45.23 C 63.80 45.56 63.74 46.22 63.72 46.54 L 63.28 46.78 C 60.62 43.47 58.11 39.72 54.22 37.75 C 50.88 39.18 47.37 40.01 43.83 40.77 C 40.88 39.08 38.43 36.76 36.00 34.43 C 33.53 33.33 31.59 35.52 29.74 36.77 C 27.44 38.80 23.83 38.60 21.39 36.91 C 21.88 37.13 22.87 37.55 23.36 37.76 C 23.88 37.78 24.93 37.81 25.46 37.83 C 25.49 36.97 25.55 35.25 25.58 34.40 C 26.31 34.15 27.03 33.91 27.76 33.67 C 26.76 32.78 25.95 31.73 25.34 30.54 C 25.82 30.02 26.79 28.98 27.27 28.46 C 30.15 30.14 33.13 34.12 36.77 31.87 C 38.65 29.64 40.86 27.72 43.53 26.49 C 43.86 26.36 44.52 26.12 44.84 25.99 C 45.49 27.26 46.54 27.53 48.02 26.80 C 50.37 27.57 52.61 28.63 54.95 29.42 C 58.51 27.05 61.40 23.76 63.72 20.18 Z" />
<path fill="#d8c397" d=" M 458.39 21.49 C 458.48 21.39 458.65 21.18 458.73 21.08 C 458.65 21.18 458.48 21.39 458.39 21.49 Z" />
<path fill="#191000" d=" M 459.59 21.96 L 460.30 21.32 C 462.57 24.17 465.00 26.99 468.04 29.06 C 471.54 27.62 475.23 26.87 478.87 25.89 C 481.44 27.78 483.93 29.77 486.13 32.09 C 489.63 33.87 492.26 30.06 494.98 28.47 C 496.77 28.89 498.71 28.89 500.42 29.66 C 501.75 30.78 503.08 32.01 504.86 32.33 C 504.61 32.51 504.10 32.87 503.85 33.05 C 503.22 31.72 501.73 31.63 500.50 31.24 C 500.29 30.99 499.86 30.49 499.65 30.24 C 499.12 29.95 498.05 29.37 497.52 29.07 C 496.94 31.10 495.74 32.80 494.30 34.30 C 494.87 34.23 496.00 34.10 496.57 34.03 C 496.71 35.00 496.98 36.94 497.11 37.90 L 497.18 38.36 C 492.71 38.28 490.02 32.49 485.39 34.80 C 484.16 37.67 481.18 38.89 478.87 40.69 C 475.11 40.01 471.35 39.24 467.88 37.59 C 465.06 40.23 462.39 43.02 460.04 46.09 L 459.24 45.24 C 461.49 42.17 464.00 39.25 467.16 37.07 C 466.04 36.06 464.84 35.14 463.94 33.93 C 463.80 32.00 466.03 31.23 467.06 29.93 C 464.18 27.66 461.70 24.95 459.59 21.96 Z" />
<path fill="#c4c578" d=" M 44.84 25.99 C 46.03 25.53 47.09 25.80 48.02 26.80 C 46.54 27.53 45.49 27.26 44.84 25.99 Z" />
<path fill="#816a2a" d=" M 511.54 28.80 C 512.17 28.80 513.41 28.80 514.03 28.80 C 513.51 29.12 512.47 29.76 511.95 30.08 C 511.56 30.28 510.80 30.68 510.41 30.87 C 510.12 31.02 509.53 31.30 509.24 31.44 C 508.21 31.94 507.17 32.42 506.14 32.90 L 505.59 32.45 C 506.64 31.79 507.69 31.12 508.74 30.44 C 509.67 29.88 510.58 29.32 511.54 28.80 Z" />
<path fill="#f6f6f5" d=" M 45.32 30.17 C 45.77 28.39 49.99 28.95 50.64 30.27 C 48.89 30.68 47.03 30.81 45.32 30.17 Z" />
<path fill="#958f4d" d=" M 471.38 30.07 C 471.78 28.06 477.09 28.15 477.67 30.00 C 475.57 30.04 473.47 30.05 471.38 30.07 Z" />
<path fill="#d8c397" d=" M 12.15 30.93 C 15.16 29.18 17.73 32.06 18.39 34.85 C 16.25 36.01 14.20 37.34 12.06 38.50 C 11.18 37.01 10.46 35.24 8.58 34.78 C 9.86 33.58 11.05 32.30 12.15 30.93 Z" />
<path fill="#f6f6f5" d=" M 23.36 37.76 C 20.00 35.55 21.13 30.60 24.57 29.21 L 25.34 30.54 C 25.95 31.73 26.76 32.78 27.76 33.67 C 27.03 33.91 26.31 34.15 25.58 34.40 C 25.55 35.25 25.49 36.97 25.46 37.83 C 24.93 37.81 23.88 37.78 23.36 37.76 Z" />
<path fill="#f0f9f1" d=" M 44.11 29.83 L 45.32 30.17 C 47.03 30.81 48.89 30.68 50.64 30.27 L 52.68 29.91 C 50.33 32.66 46.14 33.19 42.67 33.02 C 43.14 31.95 43.62 30.89 44.11 29.83 Z" />
<path fill="#fefefa" d=" M 471.38 30.07 C 473.47 30.05 475.57 30.04 477.67 30.00 C 479.07 30.49 479.57 31.56 479.18 33.22 C 476.17 32.48 473.21 31.58 470.29 30.58 L 471.38 30.07 Z" />
<path fill="#fefefa" d=" M 497.52 29.07 C 498.05 29.37 499.12 29.95 499.65 30.24 C 499.86 30.49 500.29 30.99 500.50 31.24 C 501.73 31.63 503.22 31.72 503.85 33.05 C 503.59 33.63 503.07 34.81 502.81 35.40 C 502.71 35.47 502.49 35.60 502.39 35.67 C 500.43 35.86 498.71 36.85 497.11 37.90 C 496.98 36.94 496.71 35.00 496.57 34.03 C 496.00 34.10 494.87 34.23 494.30 34.30 C 495.74 32.80 496.94 31.10 497.52 29.07 Z" />
<path fill="#fefefa" d=" M 468.18 30.67 C 470.63 31.72 473.06 32.83 475.71 33.30 C 473.45 34.11 471.29 35.15 469.03 35.93 C 467.36 35.80 466.21 34.32 464.80 33.59 C 465.92 32.62 467.06 31.66 468.18 30.67 Z" />
<path fill="#d8c397" d=" M 509.24 31.44 C 509.53 31.30 510.12 31.02 510.41 30.87 C 511.53 32.17 512.69 33.44 513.88 34.69 C 512.56 35.35 511.61 36.35 511.04 37.68 C 508.93 36.83 506.85 35.91 504.68 35.20 C 505.05 34.63 505.78 33.47 506.14 32.90 C 507.17 32.42 508.21 31.94 509.24 31.44 Z" />
<path fill="#f6f6f5" d=" M 47.66 33.39 C 49.84 32.93 51.93 32.18 54.00 31.37 C 55.63 30.68 56.46 32.63 57.48 33.47 C 56.02 34.23 54.89 36.08 53.08 35.90 C 51.16 35.35 49.40 34.36 47.66 33.39 Z" />
<path fill="#181000" d=" M 504.86 32.33 L 505.59 32.45 L 506.14 32.90 C 505.78 33.47 505.05 34.63 504.68 35.20 C 504.22 35.34 503.30 35.62 502.83 35.76 L 502.81 35.40 C 503.07 34.81 503.59 33.63 503.85 33.05 C 504.10 32.87 504.61 32.51 504.86 32.33 Z" />
<path fill="#d8c397" d=" M 19.06 32.67 C 19.70 33.96 20.28 35.28 20.83 36.61 L 21.39 36.91 C 23.83 38.60 27.44 38.80 29.74 36.77 C 31.59 35.52 33.53 33.33 36.00 34.43 C 38.43 36.76 40.88 39.08 43.83 40.77 C 47.37 40.01 50.88 39.18 54.22 37.75 C 58.11 39.72 60.62 43.47 63.28 46.78 C 62.07 47.65 59.63 47.94 59.97 49.97 C 62.46 52.50 65.40 55.29 69.27 54.61 C 71.71 56.49 74.04 58.50 76.52 60.33 C 77.34 62.06 78.69 63.41 80.33 64.38 C 79.45 65.22 78.62 66.11 77.80 67.00 C 77.25 67.00 76.17 66.99 75.62 66.99 C 75.20 66.51 74.36 65.54 73.94 65.06 C 71.99 64.05 70.55 66.39 68.97 67.11 C 64.10 63.90 58.56 61.21 52.58 61.41 C 49.56 55.35 44.08 50.27 37.13 49.47 C 33.67 48.61 29.73 50.08 26.51 48.85 C 25.67 42.51 19.26 39.76 13.79 38.44 C 15.65 36.48 19.59 36.40 19.06 32.67 Z" />
<path fill="#fefefa" d=" M 42.99 34.02 C 46.03 34.55 49.03 35.33 51.92 36.41 C 49.16 38.22 43.28 38.37 42.99 34.02 Z" />
<path fill="#f0f6ef" d=" M 470.80 36.40 C 473.55 35.20 476.38 34.03 479.42 33.83 C 478.92 38.16 473.76 37.82 470.80 36.40 Z" />
<path fill="#6b6935" d=" M 479.42 33.83 L 480.04 34.31 C 479.54 38.81 472.59 39.21 470.26 36.23 L 470.80 36.40 C 473.76 37.82 478.92 38.16 479.42 33.83 Z" />
<path fill="#d8c397" d=" M 485.39 34.80 C 490.02 32.49 492.71 38.28 497.18 38.36 L 497.81 38.53 C 498.81 39.57 500.76 39.37 500.85 37.69 C 501.40 37.30 502.50 36.54 503.04 36.15 C 505.06 36.75 507.57 36.69 508.80 38.71 C 502.89 39.28 496.40 42.82 495.76 49.33 L 495.63 49.31 C 487.51 48.22 477.77 49.57 472.90 56.95 C 471.80 58.40 470.79 59.92 469.85 61.47 C 468.91 60.72 467.94 60.68 466.93 61.36 C 462.01 62.47 457.51 64.65 453.13 67.04 C 451.67 66.15 450.18 65.32 448.52 64.90 C 448.14 65.45 447.38 66.53 447.00 67.08 C 446.50 67.06 445.51 67.01 445.02 66.99 C 444.15 66.25 443.29 65.51 442.43 64.77 C 443.95 63.43 445.53 62.09 446.45 60.24 C 448.90 58.34 451.33 56.41 453.66 54.36 C 454.91 54.78 456.12 55.37 457.43 55.62 C 457.58 54.99 457.89 53.73 458.05 53.09 C 459.33 52.08 460.66 51.12 462.00 50.18 C 461.43 53.01 463.79 54.83 465.27 56.78 C 466.85 55.31 468.80 54.11 469.82 52.14 C 470.50 49.88 468.92 47.51 466.99 46.44 C 465.18 46.40 464.11 47.98 463.07 49.18 C 462.70 49.07 461.96 48.85 461.58 48.74 L 461.64 47.83 C 461.24 47.39 460.44 46.52 460.04 46.09 C 462.39 43.02 465.06 40.23 467.88 37.59 C 471.35 39.24 475.11 40.01 478.87 40.69 C 481.18 38.89 484.16 37.67 485.39 34.80 Z" />
<path fill="#816a2a" d=" M 502.39 35.67 C 502.49 35.60 502.71 35.47 502.81 35.40 L 502.83 35.76 L 502.39 35.67 Z" />
<path fill="#816a2a" d=" M 502.83 35.76 C 503.30 35.62 504.22 35.34 504.68 35.20 C 506.85 35.91 508.93 36.83 511.04 37.68 L 510.67 38.47 C 510.04 38.55 509.41 38.63 508.80 38.71 C 507.57 36.69 505.06 36.75 503.04 36.15 L 502.83 35.76 Z" />
<path fill="#181000" d=" M 497.11 37.90 C 498.71 36.85 500.43 35.86 502.39 35.67 L 502.83 35.76 L 503.04 36.15 C 502.50 36.54 501.40 37.30 500.85 37.69 C 500.09 37.90 498.57 38.32 497.81 38.53 L 497.18 38.36 L 497.11 37.90 Z" />
<path fill="#816a2a" d=" M 497.81 38.53 C 498.57 38.32 500.09 37.90 500.85 37.69 C 500.76 39.37 498.81 39.57 497.81 38.53 Z" />
<path fill="#ba5428" d=" M 6.59 46.38 C 9.43 44.49 12.61 43.08 15.09 40.68 C 16.85 41.99 18.55 43.39 20.24 44.79 C 20.30 46.33 20.35 47.86 20.40 49.40 C 19.04 50.30 17.67 51.19 16.29 52.06 C 13.54 51.88 12.81 54.12 12.95 56.50 C 13.66 56.72 15.09 57.15 15.80 57.37 C 15.36 57.43 14.47 57.56 14.02 57.62 C 13.01 57.93 11.98 58.21 10.95 58.48 C 10.60 57.92 9.91 56.82 9.56 56.26 C 8.87 56.29 7.49 56.35 6.80 56.38 C 7.16 54.41 7.79 52.50 8.76 50.75 C 10.38 49.73 13.48 48.28 11.37 45.86 C 8.89 45.32 7.75 47.68 6.13 48.92 C 6.25 48.28 6.47 47.02 6.59 46.38 Z" />
<path fill="#78643f" d=" M 450.47 44.73 C 450.76 43.76 451.15 41.79 452.67 42.29 C 455.14 42.55 457.35 43.68 459.24 45.24 L 460.04 46.09 C 460.44 46.52 461.24 47.39 461.64 47.83 L 461.58 48.74 C 461.31 49.34 461.04 49.94 460.76 50.53 C 460.18 50.80 459.01 51.35 458.43 51.62 C 458.34 51.99 458.14 52.73 458.05 53.09 C 457.89 53.73 457.58 54.99 457.43 55.62 C 456.12 55.37 454.91 54.78 453.66 54.36 L 452.73 53.88 C 451.53 53.21 450.23 52.74 448.91 52.43 C 448.74 52.34 448.41 52.17 448.25 52.09 C 445.94 50.92 446.46 48.36 446.41 46.24 C 447.75 45.73 449.11 45.23 450.47 44.73 Z" />
<path fill="#181000" d=" M 513.00 43.25 C 513.17 41.12 515.79 42.43 515.44 44.07 C 514.83 43.86 513.61 43.45 513.00 43.25 Z" />
<path fill="#a86019" d=" M 21.88 42.77 C 24.02 44.45 24.99 46.99 25.56 49.57 C 26.22 50.23 26.88 50.89 27.54 51.56 C 27.50 51.21 27.42 50.52 27.38 50.17 C 32.21 50.46 37.45 49.51 41.85 52.04 C 44.18 53.42 47.50 54.30 48.20 57.28 C 45.37 56.34 42.99 54.20 39.93 53.94 C 34.07 52.81 28.25 54.58 22.65 56.12 C 23.23 53.72 19.71 55.25 21.86 56.47 L 22.13 56.74 C 20.68 57.09 19.24 57.44 17.79 57.79 C 17.07 56.85 16.35 55.90 15.63 54.96 C 17.90 53.46 20.75 52.41 22.18 49.98 C 23.54 47.71 22.15 45.14 21.88 42.77 Z" />
<path fill="#ba5428" d=" M 500.09 43.24 C 500.25 43.15 500.57 42.97 500.72 42.88 L 500.57 43.36 L 500.09 43.24 Z" />
<path fill="#78643f" d=" M 63.83 45.23 C 64.98 44.42 66.46 42.92 67.96 43.93 C 70.42 44.92 72.91 45.81 75.35 46.84 C 75.81 48.52 76.43 50.69 75.11 52.13 C 73.56 52.83 71.92 53.27 70.36 53.93 C 70.09 54.10 69.54 54.44 69.27 54.61 C 65.40 55.29 62.46 52.50 59.97 49.97 C 59.63 47.94 62.07 47.65 63.28 46.78 L 63.72 46.54 C 63.74 46.22 63.80 45.56 63.83 45.23 Z" />
<path fill="#a56218" d=" M 496.70 50.07 C 497.27 47.55 498.13 45.03 500.09 43.24 C 500.00 45.47 499.94 47.71 499.90 49.94 C 502.09 51.79 504.43 53.46 506.87 54.98 C 506.13 55.97 505.40 56.97 504.67 57.97 C 498.62 55.90 492.50 53.51 486.01 53.59 C 482.21 53.57 478.67 55.13 475.16 56.37 C 479.64 49.74 488.57 50.16 495.63 49.31 L 495.76 49.33 C 496.00 49.51 496.47 49.88 496.70 50.07 Z" />
<path fill="#181000" d=" M 515.44 44.07 C 515.48 44.18 515.57 44.42 515.62 44.54 C 515.57 44.42 515.48 44.18 515.44 44.07 Z" />
<path fill="#fcfaf8" d=" M 452.32 45.06 C 452.65 45.60 452.98 46.14 453.32 46.67 C 455.20 46.17 456.61 47.68 458.18 48.36 C 457.84 48.81 457.14 49.69 456.80 50.13 C 455.52 50.82 454.04 50.82 452.67 50.50 L 452.83 49.91 C 453.44 49.61 454.65 49.02 455.26 48.72 C 454.61 48.64 453.32 48.47 452.67 48.38 C 452.58 47.55 452.41 45.89 452.32 45.06 Z" />
<path fill="#190e00" d=" M 65.31 48.10 C 63.84 45.83 68.94 44.54 68.42 47.23 C 68.08 47.24 67.42 47.26 67.08 47.27 C 66.64 47.48 65.76 47.89 65.31 48.10 Z" />
<path fill="#161000" d=" M 450.91 50.97 C 451.22 48.96 451.72 46.99 452.32 45.06 C 452.41 45.89 452.58 47.55 452.67 48.38 C 452.71 48.77 452.79 49.53 452.83 49.91 L 452.67 50.50 C 452.23 50.61 451.35 50.85 450.91 50.97 Z" />
<path fill="#fefefa" d=" M 65.31 48.10 C 65.76 47.89 66.64 47.48 67.08 47.27 C 67.42 47.26 68.08 47.24 68.42 47.23 C 69.06 47.42 70.34 47.79 70.98 47.97 C 71.06 48.67 71.24 50.07 71.33 50.77 L 69.98 51.30 C 68.63 51.77 67.16 51.81 65.96 50.94 C 65.41 50.65 64.32 50.08 63.78 49.80 L 64.09 49.45 C 64.39 49.11 65.01 48.44 65.31 48.10 Z" />
<path fill="#311f00" d=" M 70.98 47.97 C 72.59 44.22 74.71 52.55 71.33 50.77 C 71.24 50.07 71.06 48.67 70.98 47.97 Z" />
<path fill="#190e00" d=" M 463.07 49.18 C 464.11 47.98 465.18 46.40 466.99 46.44 C 468.92 47.51 470.50 49.88 469.82 52.14 C 468.80 54.11 466.85 55.31 465.27 56.78 C 463.79 54.83 461.43 53.01 462.00 50.18 C 460.66 51.12 459.33 52.08 458.05 53.09 C 458.14 52.73 458.34 51.99 458.43 51.62 C 459.01 51.35 460.18 50.80 460.76 50.53 C 461.04 49.94 461.31 49.34 461.58 48.74 C 461.96 48.85 462.70 49.07 463.07 49.18 Z" />
<path fill="#190e00" d=" M 51.03 52.10 C 50.62 50.17 51.61 48.46 52.65 46.94 C 54.92 47.95 57.81 48.65 58.92 51.14 C 59.45 53.30 58.53 55.37 57.33 57.12 C 55.10 55.66 52.31 54.62 51.03 52.10 Z" />
<path fill="#92969b" d=" M 452.67 48.38 C 453.32 48.47 454.61 48.64 455.26 48.72 C 454.65 49.02 453.44 49.61 452.83 49.91 C 452.79 49.53 452.71 48.77 452.67 48.38 Z" />
<path fill="#ca0000" d=" M 462.60 50.47 C 463.76 49.43 464.90 48.34 466.13 47.37 C 467.94 47.66 468.45 49.79 469.57 50.97 C 468.24 52.73 466.89 54.51 465.00 55.70 C 464.01 54.05 463.21 52.30 462.60 50.47 Z" />
<path fill="#190e00" d=" M 472.90 56.95 C 477.77 49.57 487.51 48.22 495.63 49.31 C 488.57 50.16 479.64 49.74 475.16 56.37 C 475.09 56.45 474.96 56.63 474.89 56.72 C 474.39 56.77 473.40 56.89 472.90 56.95 Z" />
<path fill="#d20000" d=" M 52.81 48.40 C 54.95 48.26 56.52 49.66 58.05 50.92 C 58.10 51.77 58.20 53.45 58.24 54.30 C 57.66 54.65 56.48 55.37 55.90 55.72 C 54.43 54.54 53.04 53.28 51.73 51.92 C 52.10 50.75 52.46 49.58 52.81 48.40 Z" />
<path fill="#040300" d=" M 63.78 49.80 C 63.86 49.71 64.01 49.54 64.09 49.45 L 63.78 49.80 Z" />
<path fill="#000001" d=" M 67.24 48.94 C 70.07 47.14 67.69 52.25 67.24 48.94 Z" />
<path fill="#161000" d=" M 452.67 50.50 C 454.04 50.82 455.52 50.82 456.80 50.13 C 457.21 52.59 452.96 52.93 452.67 50.50 Z" />
<path fill="#502c00" d=" M 69.98 51.30 C 70.59 54.58 63.46 53.12 65.96 50.94 C 67.16 51.81 68.63 51.77 69.98 51.30 Z" />
<path fill="#181000" d=" M 448.25 52.09 C 448.41 52.17 448.74 52.34 448.91 52.43 L 448.50 52.33 L 448.25 52.09 Z" />
<path fill="#181000" d=" M 516.17 52.04 C 517.92 52.60 516.58 54.80 515.52 55.39 C 515.68 54.55 516.01 52.88 516.17 52.04 Z" />
<path fill="#000000" d=" M 69.27 54.61 C 69.54 54.44 70.09 54.10 70.36 53.93 C 72.55 56.19 75.00 58.15 77.61 59.90 C 78.07 61.87 79.59 63.05 81.41 63.75 C 81.14 63.91 80.60 64.23 80.33 64.38 C 78.69 63.41 77.34 62.06 76.52 60.33 C 74.04 58.50 71.71 56.49 69.27 54.61 Z" />
<path fill="#985c13" d=" M 21.86 56.47 C 19.71 55.25 23.23 53.72 22.65 56.12 L 21.86 56.47 Z" />
<path fill="#ba5428" d=" M 29.92 55.87 C 33.20 56.04 36.87 54.89 39.90 56.49 C 40.99 56.62 42.08 56.74 43.16 56.86 C 44.06 57.69 44.92 58.60 46.14 58.91 C 47.16 60.60 48.26 62.24 49.54 63.74 C 51.66 63.49 53.95 63.18 55.85 64.40 C 58.52 65.31 61.28 65.85 64.03 66.44 C 58.66 66.62 53.26 65.98 47.93 66.92 C 48.19 66.30 48.70 65.05 48.95 64.43 C 47.77 64.30 46.60 64.17 45.42 64.05 C 45.79 63.57 46.53 62.60 46.90 62.11 C 47.30 59.01 43.67 59.10 41.62 59.10 C 41.34 59.56 40.78 60.49 40.51 60.96 C 40.59 60.00 40.76 58.09 40.84 57.13 C 39.13 57.14 37.42 57.17 35.71 57.23 C 35.20 57.72 34.67 58.20 34.14 58.68 C 33.22 57.20 31.63 56.39 29.94 56.22 C 27.79 57.04 28.32 59.03 28.68 60.80 C 27.78 58.11 20.88 58.50 22.23 62.19 C 22.58 62.40 23.28 62.83 23.63 63.04 C 22.07 63.59 21.94 64.57 23.25 65.98 C 20.73 64.90 17.84 66.00 15.48 64.36 C 15.54 63.05 15.55 61.74 15.71 60.45 C 17.97 59.24 20.83 59.67 23.15 58.40 C 25.36 57.35 28.12 57.92 29.92 55.87 Z" />
<path fill="#161000" d=" M 444.58 61.67 C 445.79 57.84 450.28 56.76 452.73 53.88 L 453.66 54.36 C 451.33 56.41 448.90 58.34 446.45 60.24 C 445.53 62.09 443.95 63.43 442.43 64.77 C 442.16 64.58 441.62 64.19 441.35 64.00 C 442.41 63.21 443.50 62.45 444.58 61.67 Z" />
<path fill="#ba5428" d=" M 473.28 62.66 C 478.05 54.77 489.16 53.85 496.83 57.63 C 500.13 59.20 503.77 59.70 507.29 60.57 C 507.37 61.13 507.55 62.24 507.64 62.79 C 507.65 63.15 507.69 63.87 507.70 64.23 C 507.58 64.27 507.33 64.35 507.21 64.40 L 506.59 64.60 C 504.82 63.14 502.87 64.32 501.89 66.03 C 501.69 65.75 501.29 65.18 501.09 64.90 C 500.57 64.71 499.53 64.33 499.01 64.14 C 499.82 62.94 500.62 61.72 501.39 60.49 C 499.00 59.58 496.14 58.37 493.90 60.27 C 493.73 59.17 493.45 58.08 492.80 57.16 C 491.11 55.40 489.43 57.56 487.87 58.36 C 487.28 57.57 486.70 56.78 486.13 56.00 C 484.82 56.40 483.52 56.80 482.23 57.21 C 482.19 58.20 482.16 59.19 482.14 60.18 C 480.76 59.71 479.34 58.93 477.84 59.29 C 475.00 59.17 476.33 62.54 477.42 63.76 C 476.94 63.60 475.98 63.28 475.51 63.11 C 474.89 64.26 474.29 65.40 473.69 66.55 C 468.46 66.17 463.21 66.33 457.99 66.63 C 461.77 65.69 465.60 64.90 469.49 64.50 L 469.17 63.56 L 469.82 63.36 C 470.96 63.11 472.12 62.88 473.28 62.66 Z" />
<path fill="#181000" d=" M 513.52 55.68 C 514.02 55.61 515.02 55.46 515.52 55.39 C 514.91 56.63 514.09 57.95 512.65 58.27 C 512.87 57.63 513.30 56.33 513.52 55.68 Z" />
<path fill="#a56218" d=" M 474.89 56.72 C 474.96 56.63 475.09 56.45 475.16 56.37 L 475.11 56.50 L 474.89 56.72 Z" />
<path fill="#a96119" d=" M 48.20 57.28 C 49.41 56.80 50.65 58.79 49.99 59.79 C 48.79 60.18 47.41 58.30 48.20 57.28 Z" />
<path fill="#a56218" d=" M 472.90 56.95 C 473.40 56.89 474.39 56.77 474.89 56.72 C 474.99 58.75 471.92 59.50 472.90 56.95 Z" />
<path fill="#161000" d=" M 482.23 57.21 C 483.52 56.80 484.82 56.40 486.13 56.00 C 486.70 56.78 487.28 57.57 487.87 58.36 C 489.43 57.56 491.11 55.40 492.80 57.16 C 493.45 58.08 493.73 59.17 493.90 60.27 C 496.14 58.37 499.00 59.58 501.39 60.49 C 500.62 61.72 499.82 62.94 499.01 64.14 C 498.75 64.43 498.23 65.01 497.98 65.30 C 497.39 65.16 496.23 64.88 495.65 64.74 L 495.78 63.70 L 495.89 62.84 C 498.83 64.43 497.37 59.36 495.54 62.07 C 494.35 62.24 493.16 62.49 492.12 63.09 C 491.80 63.32 491.16 63.78 490.84 64.01 C 491.14 64.32 491.73 64.94 492.03 65.25 C 491.58 66.17 491.12 67.09 490.66 68.00 L 484.64 68.00 C 484.99 67.55 485.67 66.65 486.01 66.20 C 486.83 67.31 488.68 67.97 489.79 66.87 C 490.56 65.17 487.89 64.89 486.80 65.05 L 487.23 63.80 C 487.87 61.36 486.26 59.82 484.33 58.72 C 484.19 59.17 483.89 60.07 483.74 60.51 C 483.56 61.07 483.19 62.18 483.01 62.74 L 482.23 62.54 C 481.64 62.44 480.45 62.25 479.86 62.15 L 479.32 62.02 L 479.11 62.44 L 479.52 62.80 L 480.17 63.69 C 479.78 63.91 478.98 64.37 478.58 64.59 C 477.47 65.23 476.44 65.99 475.43 66.75 C 476.33 66.81 478.12 66.93 479.02 66.99 C 480.74 67.05 482.50 67.02 484.20 66.60 L 483.96 68.00 L 424.51 68.00 L 424.14 67.27 C 424.17 67.02 424.23 66.51 424.26 66.26 C 425.85 66.57 427.48 66.81 429.11 66.92 C 429.43 66.92 430.08 66.93 430.41 66.94 C 434.41 66.92 438.41 66.88 442.42 66.95 C 443.07 66.96 444.37 66.98 445.02 66.99 C 445.51 67.01 446.50 67.06 447.00 67.08 C 447.38 66.53 448.14 65.45 448.52 64.90 C 450.18 65.32 451.67 66.15 453.13 67.04 C 457.51 64.65 462.01 62.47 466.93 61.36 C 467.49 61.91 468.61 63.01 469.17 63.56 L 469.49 64.50 C 465.60 64.90 461.77 65.69 457.99 66.63 C 463.21 66.33 468.46 66.17 473.69 66.55 C 474.29 65.40 474.89 64.26 475.51 63.11 C 475.98 63.28 476.94 63.60 477.42 63.76 C 476.33 62.54 475.00 59.17 477.84 59.29 C 479.34 58.93 480.76 59.71 482.14 60.18 C 482.16 59.19 482.19 58.20 482.23 57.21 Z" />
<path fill="#c5b762" d=" M 424.34 62.19 C 427.38 61.13 430.32 59.79 433.33 58.64 C 434.53 57.87 435.45 59.27 436.19 59.94 C 435.63 59.64 434.51 59.03 433.95 58.72 C 433.58 59.13 432.83 59.95 432.46 60.36 C 429.95 60.94 427.48 61.59 425.06 62.44 C 425.05 63.06 425.03 64.32 425.03 64.94 C 424.81 65.17 424.37 65.63 424.15 65.86 C 423.85 65.88 423.24 65.90 422.93 65.91 C 423.39 64.67 423.86 63.43 424.34 62.19 Z" />
<path fill="#181000" d=" M 512.09 58.84 C 512.23 58.70 512.51 58.41 512.65 58.27 C 512.51 58.41 512.23 58.70 512.09 58.84 Z" />
<path fill="#c79815" d=" M 30.13 59.77 C 30.37 59.49 30.85 58.93 31.09 58.65 L 31.89 59.10 L 31.83 59.89 C 31.41 59.86 30.56 59.80 30.13 59.77 Z" />
<path fill="#b0882e" d=" M 36.70 58.76 C 39.46 57.62 38.83 60.84 39.10 62.40 C 39.73 62.27 40.98 62.03 41.61 61.90 C 40.49 62.60 39.70 63.72 39.47 65.01 C 37.81 65.95 36.20 64.41 34.61 64.09 C 34.65 63.26 34.74 61.60 34.78 60.76 L 35.65 60.88 C 36.79 63.49 39.50 61.10 37.03 59.67 L 36.70 58.76 Z" />
<path fill="#ccb620" d=" M 81.41 63.75 C 83.91 62.55 85.56 60.22 87.85 58.71 C 87.26 59.36 86.09 60.64 85.50 61.28 C 87.58 61.57 89.72 61.69 91.74 62.33 C 93.21 63.36 92.93 65.37 93.35 66.91 L 92.05 67.04 L 92.04 66.26 C 92.03 65.72 92.01 64.64 91.99 64.10 C 88.66 62.07 84.08 62.67 81.41 65.56 C 80.83 66.01 80.25 66.46 79.67 66.92 C 79.20 66.94 78.26 66.98 77.80 67.00 C 78.62 66.11 79.45 65.22 80.33 64.38 C 80.60 64.23 81.14 63.91 81.41 63.75 Z" />
<path fill="#502c00" d=" M 87.85 58.71 L 89.05 58.56 C 89.48 58.95 90.34 59.71 90.77 60.09 L 91.84 60.23 C 92.45 60.34 93.68 60.56 94.30 60.68 C 95.68 61.47 97.14 62.16 98.28 63.32 C 97.73 64.40 97.17 65.49 96.63 66.59 C 95.53 66.69 94.44 66.80 93.35 66.91 C 92.93 65.37 93.21 63.36 91.74 62.33 C 89.72 61.69 87.58 61.57 85.50 61.28 C 86.09 60.64 87.26 59.36 87.85 58.71 Z" />
<path fill="#e0d156" d=" M 89.05 58.56 C 89.48 58.95 90.34 59.71 90.77 60.09 C 90.34 59.71 89.48 58.95 89.05 58.56 Z" />
<path fill="#190e00" d=" M 432.46 60.36 C 432.83 59.95 433.58 59.13 433.95 58.72 C 434.51 59.03 435.63 59.64 436.19 59.94 C 436.51 60.26 437.16 60.90 437.48 61.22 C 434.93 61.65 432.35 62.01 429.86 62.75 C 429.36 62.91 428.35 63.23 427.85 63.39 C 427.21 64.41 426.27 64.93 425.03 64.94 C 425.03 64.32 425.05 63.06 425.06 62.44 C 427.48 61.59 429.95 60.94 432.46 60.36 Z" />
<path fill="#ffe790" d=" M 484.33 58.72 C 486.26 59.82 487.87 61.36 487.23 63.80 C 486.57 63.77 485.25 63.72 484.59 63.69 C 484.38 62.90 483.95 61.31 483.74 60.51 C 483.89 60.07 484.19 59.17 484.33 58.72 Z" />
<path fill="#c3a826" d=" M 490.30 59.22 L 491.00 58.62 C 491.29 58.85 491.86 59.31 492.15 59.54 C 491.74 59.65 490.91 59.88 490.50 59.99 L 490.30 59.22 Z" />
<path fill="#181000" d=" M 511.83 59.07 L 512.09 58.84 C 512.03 58.91 511.92 59.06 511.86 59.14 L 511.83 59.07 Z" />
<path fill="#eed88c" d=" M 30.13 59.77 C 30.56 59.80 31.41 59.86 31.83 59.89 C 34.09 59.34 35.41 64.37 32.57 64.37 C 32.60 63.92 32.64 63.02 32.67 62.57 C 30.89 62.78 30.27 61.28 30.13 59.77 Z" />
<path fill="#eedd89" d=" M 35.65 60.88 C 35.99 60.58 36.68 59.98 37.03 59.67 C 39.50 61.10 36.79 63.49 35.65 60.88 Z" />
<path fill="#d4c64e" d=" M 91.84 60.23 C 92.45 60.34 93.68 60.56 94.30 60.68 C 93.68 60.56 92.45 60.34 91.84 60.23 Z" />
<path fill="#ffe790" d=" M 487.59 63.19 C 488.43 62.05 488.88 60.29 490.50 59.99 C 490.91 59.88 491.74 59.65 492.15 59.54 C 492.44 61.74 491.62 62.71 489.70 62.43 C 489.67 62.83 489.62 63.62 489.60 64.02 C 489.10 63.81 488.09 63.39 487.59 63.19 Z" />
<path fill="#ae8508" d=" M 24.70 62.60 C 23.71 61.01 27.04 60.05 26.68 62.03 C 26.33 62.25 25.63 62.68 25.28 62.90 L 24.70 62.60 Z" />
<path fill="#d6c022" d=" M 437.48 61.22 C 438.69 62.25 440.03 63.11 441.35 64.00 C 441.62 64.19 442.16 64.58 442.43 64.77 C 443.29 65.51 444.15 66.25 445.02 66.99 C 444.37 66.98 443.07 66.96 442.42 66.95 C 439.94 63.67 436.11 62.43 432.11 62.94 C 431.31 64.17 430.32 65.37 430.41 66.94 C 430.08 66.93 429.43 66.92 429.11 66.92 C 429.35 65.52 429.61 64.13 429.86 62.75 C 432.35 62.01 434.93 61.65 437.48 61.22 Z" />
<path fill="#7a4c07" d=" M 466.93 61.36 C 467.94 60.68 468.91 60.72 469.85 61.47 C 469.84 61.95 469.83 62.89 469.82 63.36 L 469.17 63.56 C 468.61 63.01 467.49 61.91 466.93 61.36 Z" />
<path fill="#181000" d=" M 483.01 62.74 C 483.19 62.18 483.56 61.07 483.74 60.51 C 483.95 61.31 484.38 62.90 484.59 63.69 C 485.25 63.72 486.57 63.77 487.23 63.80 L 486.80 65.05 C 486.61 65.34 486.21 65.91 486.01 66.20 C 485.67 66.65 484.99 67.55 484.64 68.00 L 483.96 68.00 L 484.20 66.60 L 484.28 66.10 C 483.85 65.93 482.99 65.58 482.57 65.41 C 481.24 65.12 479.91 64.85 478.58 64.59 C 478.98 64.37 479.78 63.91 480.17 63.69 C 480.92 63.76 482.40 63.91 483.14 63.99 C 483.31 64.10 483.66 64.32 483.83 64.43 L 484.39 64.53 L 484.36 64.02 L 483.74 63.84 C 483.55 63.74 483.17 63.55 482.98 63.45 L 483.01 62.74 Z" />
<path fill="#c4a427" d=" M 495.54 62.07 C 497.37 59.36 498.83 64.43 495.89 62.84 L 495.54 62.07 Z" />
<path fill="#ba5428" d=" M 8.90 62.92 C 9.71 62.75 10.53 62.58 11.34 62.42 C 10.80 64.50 11.48 66.40 13.85 66.69 C 9.56 66.26 5.25 66.43 0.94 66.58 C 3.75 65.73 6.71 65.01 8.90 62.92 Z" />
<path fill="#eed579" d=" M 25.28 62.90 C 25.63 62.68 26.33 62.25 26.68 62.03 C 28.67 62.00 31.73 62.25 32.07 64.81 C 29.72 64.59 27.05 64.79 25.28 62.90 Z" />
<path fill="#edd57c" d=" M 41.61 61.90 C 42.02 61.92 42.83 61.95 43.24 61.97 C 43.66 63.73 40.91 65.00 39.47 65.01 C 39.70 63.72 40.49 62.60 41.61 61.90 Z" />
<path fill="#ffd230" d=" M 479.32 62.02 L 479.86 62.15 L 479.52 62.80 L 479.11 62.44 L 479.32 62.02 Z" />
<path fill="#ffe790" d=" M 479.86 62.15 C 480.45 62.25 481.64 62.44 482.23 62.54 C 482.41 62.77 482.79 63.22 482.98 63.45 L 483.14 63.99 C 482.40 63.91 480.92 63.76 480.17 63.69 L 479.52 62.80 L 479.86 62.15 Z" />
<path fill="#cba359" d=" M 482.23 62.54 L 483.01 62.74 L 482.98 63.45 C 482.79 63.22 482.41 62.77 482.23 62.54 Z" />
<path fill="#f4daa5" d=" M 492.12 63.09 C 493.16 62.49 494.35 62.24 495.54 62.07 L 495.89 62.84 L 495.78 63.70 C 495.26 63.91 494.22 64.34 493.69 64.56 L 493.06 64.31 C 492.83 64.00 492.36 63.40 492.12 63.09 Z" />
<path fill="#5b6a08" d=" M 507.64 62.79 C 509.84 60.45 510.30 64.20 507.70 64.23 C 507.69 63.87 507.65 63.15 507.64 62.79 Z" />
<path fill="#ba5428" d=" M 511.59 62.19 C 514.26 63.24 516.79 64.62 519.06 66.39 C 515.70 66.30 512.33 66.29 508.98 66.66 C 509.82 66.14 510.66 65.63 511.50 65.11 C 511.52 64.38 511.56 62.92 511.59 62.19 Z" />
<path fill="#000001" d=" M 81.41 65.56 C 84.08 62.67 88.66 62.07 91.99 64.10 C 92.01 64.64 92.03 65.72 92.04 66.26 C 88.59 66.77 84.33 68.13 81.41 65.56 Z" />
<path fill="#4b2f00" d=" M 427.85 63.39 C 428.35 63.23 429.36 62.91 429.86 62.75 C 429.61 64.13 429.35 65.52 429.11 66.92 C 427.48 66.81 425.85 66.57 424.26 66.26 L 424.15 65.86 C 424.37 65.63 424.81 65.17 425.03 64.94 C 426.27 64.93 427.21 64.41 427.85 63.39 Z" />
<path fill="#000001" d=" M 432.11 62.94 C 436.11 62.43 439.94 63.67 442.42 66.95 C 438.41 66.88 434.41 66.92 430.41 66.94 C 430.32 65.37 431.31 64.17 432.11 62.94 Z" />
<path fill="#cba359" d=" M 482.98 63.45 C 483.17 63.55 483.55 63.74 483.74 63.84 L 483.14 63.99 L 482.98 63.45 Z" />
<path fill="#c19837" d=" M 490.84 64.01 C 491.16 63.78 491.80 63.32 492.12 63.09 C 492.36 63.40 492.83 64.00 493.06 64.31 L 492.86 64.89 L 492.03 65.25 C 491.73 64.94 491.14 64.32 490.84 64.01 Z" />
<path fill="#fefefa" d=" M 483.14 63.99 L 483.74 63.84 L 483.83 64.43 C 483.66 64.32 483.31 64.10 483.14 63.99 Z" />
<path fill="#cba359" d=" M 483.74 63.84 L 484.36 64.02 L 484.39 64.53 L 483.83 64.43 L 483.74 63.84 Z" />
<path fill="#845f0e" d=" M 493.06 64.31 L 493.69 64.56 C 493.49 64.64 493.07 64.81 492.86 64.89 L 493.06 64.31 Z" />
<path fill="#181000" d=" M 493.69 64.56 C 494.22 64.34 495.26 63.91 495.78 63.70 L 495.65 64.74 C 495.42 64.95 494.95 65.38 494.72 65.59 C 494.23 65.73 493.25 66.02 492.76 66.16 L 492.53 66.58 C 492.32 66.94 491.90 67.65 491.69 68.00 L 490.66 68.00 C 491.12 67.09 491.58 66.17 492.03 65.25 L 492.86 64.89 C 493.07 64.81 493.49 64.64 493.69 64.56 Z" />
<path fill="#181000" d=" M 497.98 65.30 C 498.23 65.01 498.75 64.43 499.01 64.14 C 499.53 64.33 500.57 64.71 501.09 64.90 C 501.29 65.18 501.69 65.75 501.89 66.03 L 501.79 66.46 C 501.38 66.50 500.57 66.60 500.16 66.65 C 499.62 66.46 498.55 66.10 498.01 65.92 L 497.98 65.30 Z" />
<path fill="#5b6a08" d=" M 501.89 66.03 C 502.87 64.32 504.82 63.14 506.59 64.60 C 505.09 65.47 503.56 66.43 501.79 66.46 L 501.89 66.03 Z" />
<path fill="#5b6a08" d=" M 507.21 64.40 C 507.33 64.35 507.58 64.27 507.70 64.23 C 507.58 64.27 507.33 64.35 507.21 64.40 Z" />
<path fill="#c1ac38" d=" M 42.27 65.73 C 42.80 64.28 45.29 65.30 46.36 65.79 C 47.53 67.06 44.66 67.30 43.94 66.86 C 43.53 66.58 42.69 66.01 42.27 65.73 Z" />
<path fill="#d8c397" d=" M 98.77 63.84 C 100.81 67.02 104.86 65.57 107.96 65.88 C 212.95 65.85 317.94 65.79 422.93 65.91 C 423.24 65.90 423.85 65.88 424.15 65.86 L 424.26 66.26 C 424.23 66.51 424.17 67.02 424.14 67.27 L 423.34 67.08 C 319.89 66.90 216.43 67.05 112.98 67.00 C 108.69 67.06 104.38 66.83 100.10 67.26 C 99.77 66.40 99.10 64.69 98.77 63.84 Z" />
<path fill="#c09e2d" d=" M 475.43 66.75 C 476.44 65.99 477.47 65.23 478.58 64.59 C 479.91 64.85 481.24 65.12 482.57 65.41 C 481.30 65.76 480.12 66.29 479.02 66.99 C 478.12 66.93 476.33 66.81 475.43 66.75 Z" />
<path fill="#ffe790" d=" M 486.01 66.20 C 486.21 65.91 486.61 65.34 486.80 65.05 C 487.89 64.89 490.56 65.17 489.79 66.87 C 488.68 67.97 486.83 67.31 486.01 66.20 Z" />
<path fill="#c19837" d=" M 494.72 65.59 C 494.95 65.38 495.42 64.95 495.65 64.74 C 496.23 64.88 497.39 65.16 497.98 65.30 L 498.01 65.92 C 497.19 65.84 495.55 65.67 494.72 65.59 Z" />
<path fill="#fff594" d=" M 23.25 65.98 C 25.29 65.59 28.74 64.99 30.11 66.45 C 28.08 66.84 24.67 67.53 23.25 65.98 Z" />
<path fill="#eec036" d=" M 33.03 66.60 C 32.59 64.50 37.56 66.15 34.87 67.04 C 34.41 66.93 33.49 66.71 33.03 66.60 Z" />
<path fill="#fbf29e" d=" M 38.26 66.61 C 38.66 65.19 41.10 65.60 42.27 65.73 C 42.69 66.01 43.53 66.58 43.94 66.86 C 42.10 67.08 40.04 67.22 38.26 66.61 Z" />
<path fill="#f8da87" d=" M 479.02 66.99 C 480.12 66.29 481.30 65.76 482.57 65.41 C 482.99 65.58 483.85 65.93 484.28 66.10 L 484.20 66.60 C 482.50 67.02 480.74 67.05 479.02 66.99 Z" />
<path fill="#ffee94" d=" M 492.76 66.16 C 493.25 66.02 494.23 65.73 494.72 65.59 C 495.55 65.67 497.19 65.84 498.01 65.92 L 498.11 66.65 C 496.26 67.02 494.36 66.96 492.53 66.58 L 492.76 66.16 Z" />
<path fill="#c19837" d=" M 498.01 65.92 C 498.55 66.10 499.62 66.46 500.16 66.65 C 499.65 66.65 498.62 66.65 498.11 66.65 L 498.01 65.92 Z" />
<path fill="#0c0500" d=" M 98.50 68.00 C 98.90 67.81 99.70 67.44 100.10 67.26 C 104.38 66.83 108.69 67.06 112.98 67.00 C 216.43 67.05 319.89 66.90 423.34 67.08 L 424.14 67.27 L 424.51 68.00 L 98.50 68.00 Z" />
</svg>
